<svg width="141" height="35" viewBox="0 0 141 35" fill="none" xmlns="http://www.w3.org/2000/svg">
<rect width="141" height="35" fill="#1B1C1E"/>
<path d="M10.8281 7.72656H14.4961V18.3438C14.4961 19.5312 14.6367 20.3984 14.918 20.9453C15.3555 21.9141 16.3086 22.3984 17.7773 22.3984C19.2383 22.3984 20.1875 21.9141 20.625 20.9453C20.9062 20.3984 21.0469 19.5312 21.0469 18.3438V7.72656H24.7148V18.3438C24.7148 20.1797 24.4297 21.6094 23.8594 22.6328C22.7969 24.5078 20.7695 25.4453 17.7773 25.4453C14.7852 25.4453 12.7539 24.5078 11.6836 22.6328C11.1133 21.6094 10.8281 20.1797 10.8281 18.3438V7.72656ZM34.8398 11.9219C34.9023 11.9219 34.9531 11.9258 34.9922 11.9336C35.0391 11.9336 35.1367 11.9375 35.2852 11.9453V15.3672C35.0742 15.3438 34.8867 15.3281 34.7227 15.3203C34.5586 15.3125 34.4258 15.3086 34.3242 15.3086C32.9805 15.3086 32.0781 15.7461 31.6172 16.6211C31.3594 17.1133 31.2305 17.8711 31.2305 18.8945V25H27.8672V12.2266H31.0547V14.4531C31.5703 13.6016 32.0195 13.0195 32.4023 12.707C33.0273 12.1836 33.8398 11.9219 34.8398 11.9219ZM44.1562 11.9453C45.8359 11.9453 47.1484 12.5508 48.0938 13.7617C49.0469 14.9727 49.5234 16.5352 49.5234 18.4492C49.5234 20.4336 49.0547 22.0781 48.1172 23.3828C47.1797 24.6875 45.8711 25.3398 44.1914 25.3398C43.1367 25.3398 42.2891 25.1289 41.6484 24.707C41.2656 24.457 40.8516 24.0195 40.4062 23.3945V25H37.1367V7.75H40.4648V13.8906C40.8867 13.2969 41.3516 12.8438 41.8594 12.5312C42.4609 12.1406 43.2266 11.9453 44.1562 11.9453ZM43.3008 22.5859C44.1602 22.5859 44.8281 22.2383 45.3047 21.543C45.7812 20.8477 46.0195 19.9336 46.0195 18.8008C46.0195 17.8945 45.9023 17.1445 45.668 16.5508C45.2227 15.4258 44.4023 14.8633 43.207 14.8633C41.9961 14.8633 41.1641 15.4141 40.7109 16.5156C40.4766 17.1016 40.3594 17.8594 40.3594 18.7891C40.3594 19.8828 40.6016 20.7891 41.0859 21.5078C41.5703 22.2266 42.3086 22.5859 43.3008 22.5859ZM58.9688 18.7891C58.7578 18.9219 58.543 19.0312 58.3242 19.1172C58.1133 19.1953 57.8203 19.2695 57.4453 19.3398L56.6953 19.4805C55.9922 19.6055 55.4883 19.7578 55.1836 19.9375C54.668 20.2422 54.4102 20.7148 54.4102 21.3555C54.4102 21.9258 54.5664 22.3398 54.8789 22.5977C55.1992 22.8477 55.5859 22.9727 56.0391 22.9727C56.7578 22.9727 57.418 22.7617 58.0195 22.3398C58.6289 21.918 58.9453 21.1484 58.9688 20.0312V18.7891ZM56.9414 17.2305C57.5586 17.1523 58 17.0547 58.2656 16.9375C58.7422 16.7344 58.9805 16.418 58.9805 15.9883C58.9805 15.4648 58.7969 15.1055 58.4297 14.9102C58.0703 14.707 57.5391 14.6055 56.8359 14.6055C56.0469 14.6055 55.4883 14.8008 55.1602 15.1914C54.9258 15.4805 54.7695 15.8711 54.6914 16.3633H51.4688C51.5391 15.2461 51.8516 14.3281 52.4062 13.6094C53.2891 12.4844 54.8047 11.9219 56.9531 11.9219C58.3516 11.9219 59.5938 12.1992 60.6797 12.7539C61.7656 13.3086 62.3086 14.3555 62.3086 15.8945V21.7539C62.3086 22.1602 62.3164 22.6523 62.332 23.2305C62.3555 23.668 62.4219 23.9648 62.5312 24.1211C62.6406 24.2773 62.8047 24.4062 63.0234 24.5078V25H59.3906C59.2891 24.7422 59.2188 24.5 59.1797 24.2734C59.1406 24.0469 59.1094 23.7891 59.0859 23.5C58.625 24 58.0938 24.4258 57.4922 24.7773C56.7734 25.1914 55.9609 25.3984 55.0547 25.3984C53.8984 25.3984 52.9414 25.0703 52.1836 24.4141C51.4336 23.75 51.0586 22.8125 51.0586 21.6016C51.0586 20.0312 51.6641 18.8945 52.875 18.1914C53.5391 17.8086 54.5156 17.5352 55.8047 17.3711L56.9414 17.2305ZM72.3633 11.9219C73.6836 11.9219 74.7617 12.2695 75.5977 12.9648C76.4414 13.6523 76.8633 14.7969 76.8633 16.3984V25H73.4414V17.2305C73.4414 16.5586 73.3516 16.043 73.1719 15.6836C72.8438 15.0273 72.2188 14.6992 71.2969 14.6992C70.1641 14.6992 69.3867 15.1797 68.9648 16.1406C68.7461 16.6484 68.6367 17.2969 68.6367 18.0859V25H65.3086V12.25H68.5312V14.1133C68.9609 13.457 69.3672 12.9844 69.75 12.6953C70.4375 12.1797 71.3086 11.9219 72.3633 11.9219Z" fill="#3C50E4"/>
<path d="M83.5312 25H79.9453V7.72656H83.5312V25ZM93.7148 11.9219C95.0352 11.9219 96.1133 12.2695 96.9492 12.9648C97.793 13.6523 98.2148 14.7969 98.2148 16.3984V25H94.793V17.2305C94.793 16.5586 94.7031 16.043 94.5234 15.6836C94.1953 15.0273 93.5703 14.6992 92.6484 14.6992C91.5156 14.6992 90.7383 15.1797 90.3164 16.1406C90.0977 16.6484 89.9883 17.2969 89.9883 18.0859V25H86.6602V12.25H89.8828V14.1133C90.3125 13.457 90.7188 12.9844 91.1016 12.6953C91.7891 12.1797 92.6602 11.9219 93.7148 11.9219ZM106.02 7.55078C106.23 7.55078 106.422 7.55859 106.594 7.57422C106.766 7.58203 107 7.59766 107.297 7.62109V10.3398C107.109 10.3164 106.793 10.3008 106.348 10.293C105.91 10.2773 105.605 10.375 105.434 10.5859C105.27 10.7891 105.188 11.0156 105.188 11.2656C105.188 11.5156 105.188 11.875 105.188 12.3438H107.379V14.6992H105.188V25H101.859V14.6992H99.9961V12.3438H101.824V11.5234C101.824 10.1562 102.055 9.21484 102.516 8.69922C103 7.93359 104.168 7.55078 106.02 7.55078ZM116.238 11.9219C116.301 11.9219 116.352 11.9258 116.391 11.9336C116.438 11.9336 116.535 11.9375 116.684 11.9453V15.3672C116.473 15.3438 116.285 15.3281 116.121 15.3203C115.957 15.3125 115.824 15.3086 115.723 15.3086C114.379 15.3086 113.477 15.7461 113.016 16.6211C112.758 17.1133 112.629 17.8711 112.629 18.8945V25H109.266V12.2266H112.453V14.4531C112.969 13.6016 113.418 13.0195 113.801 12.707C114.426 12.1836 115.238 11.9219 116.238 11.9219ZM125.695 18.7891C125.484 18.9219 125.27 19.0312 125.051 19.1172C124.84 19.1953 124.547 19.2695 124.172 19.3398L123.422 19.4805C122.719 19.6055 122.215 19.7578 121.91 19.9375C121.395 20.2422 121.137 20.7148 121.137 21.3555C121.137 21.9258 121.293 22.3398 121.605 22.5977C121.926 22.8477 122.312 22.9727 122.766 22.9727C123.484 22.9727 124.145 22.7617 124.746 22.3398C125.355 21.918 125.672 21.1484 125.695 20.0312V18.7891ZM123.668 17.2305C124.285 17.1523 124.727 17.0547 124.992 16.9375C125.469 16.7344 125.707 16.418 125.707 15.9883C125.707 15.4648 125.523 15.1055 125.156 14.9102C124.797 14.707 124.266 14.6055 123.562 14.6055C122.773 14.6055 122.215 14.8008 121.887 15.1914C121.652 15.4805 121.496 15.8711 121.418 16.3633H118.195C118.266 15.2461 118.578 14.3281 119.133 13.6094C120.016 12.4844 121.531 11.9219 123.68 11.9219C125.078 11.9219 126.32 12.1992 127.406 12.7539C128.492 13.3086 129.035 14.3555 129.035 15.8945V21.7539C129.035 22.1602 129.043 22.6523 129.059 23.2305C129.082 23.668 129.148 23.9648 129.258 24.1211C129.367 24.2773 129.531 24.4062 129.75 24.5078V25H126.117C126.016 24.7422 125.945 24.5 125.906 24.2734C125.867 24.0469 125.836 23.7891 125.812 23.5C125.352 24 124.82 24.4258 124.219 24.7773C123.5 25.1914 122.688 25.3984 121.781 25.3984C120.625 25.3984 119.668 25.0703 118.91 24.4141C118.16 23.75 117.785 22.8125 117.785 21.6016C117.785 20.0312 118.391 18.8945 119.602 18.1914C120.266 17.8086 121.242 17.5352 122.531 17.3711L123.668 17.2305Z" fill="white"/>
</svg>
